HIERARCHY
ROOT Hips
{
	OFFSET 0.000000 0.000000 0.000000
	CHANNELS 6 Xposition Yposition Zposition Zrotation Yrotation Xrotation 
	JOINT LHipJoint
	{
		OFFSET 0.000000 0.000000 0.000000
		CHANNELS 3 Zrotation Yrotation Xrotation
		JOINT LeftUpLeg
		{
			OFFSET 1.363060 -1.794630 0.839290
			CHANNELS 3 Zrotation Yrotation Xrotation
			JOINT LeftLeg
			{
				OFFSET 2.448110 -6.726130 0.000000
				CHANNELS 3 Zrotation Yrotation Xrotation
				JOINT LeftFoot
				{
					OFFSET 2.562200 -7.039590 0.000000
					CHANNELS 3 Zrotation Yrotation Xrotation
					JOINT LeftToeBase
					{
						OFFSET 0.157640 -0.433110 2.322550
						CHANNELS 3 Zrotation Yrotation Xrotation
						End Site
						{
							OFFSET 0.000000 0.000000 0.000000
						}
					}
				}
			}
		}
	}
	JOINT RHipJoint
	{
		OFFSET 0.000000 0.000000 0.000000
		CHANNELS 3 Zrotation Yrotation Xrotation
		JOINT RightUpLeg
		{
			OFFSET -1.305520 -1.794630 0.839290
			CHANNELS 3 Zrotation Yrotation Xrotation
			JOINT RightLeg
			{
				OFFSET -2.542530 -6.985550 0.000000
				CHANNELS 3 Zrotation Yrotation Xrotation
				JOINT RightFoot
				{
					OFFSET -2.568260 -7.056230 0.000000
					CHANNELS 3 Zrotation Yrotation Xrotation
					JOINT RightToeBase
					{
						OFFSET -0.164730 -0.452590 2.363150
						CHANNELS 3 Zrotation Yrotation Xrotation
						End Site
						{
							OFFSET 0.000000 0.000000 0.000000
						}
					}
				}
			}
		}
	}
}
MOTION
Frames: 14
Frame Time: 0.008333
3.469034 17.202881 0.881534 -97.277971 -88.766247 109.005909 -10.828404 1.369417 0.965320 -3.145721 15.577159 -15.934166 -2.565759 -1.303707 -2.944387 0.153973 1.940664 4.038068 0.631100 -0.000000 -37.426201 9.936388 -1.789351 2.313940 4.201904 -3.752724 -11.460944 2.220416 1.346776 -0.341067 -0.367839 -7.161329 -1.992753 -2.298700 0.000000 -42.881700
3.473470 17.203327 0.881877 -60.973990 -89.587361 72.706672 -11.460213 1.277418 1.035275 -3.395492 15.266045 -16.026026 -2.530900 -1.293069 -2.887806 0.152888 1.914866 4.062778 0.625000 -0.000000 -37.405400 9.326618 -1.895586 2.266494 3.941407 -3.933231 -11.455200 2.239962 1.360285 -0.290992 -0.372655 -7.289925 -2.062269 -2.338300 0.000000 -42.903100
3.477684 17.203420 0.884551 160.242442 -89.885050 -148.483535 -11.892870 1.670993 1.482242 -3.363829 14.226090 -16.441634 -2.413715 -1.074358 -2.694783 0.259546 2.154478 3.823806 0.622401 0.000000 -37.347900 8.880021 -1.499480 1.844498 4.047560 -5.055881 -11.420977 2.352604 1.568728 -0.000608 -0.233987 -6.924073 -2.019686 -2.319500 -0.000000 -42.928900
3.482072 17.203996 0.884508 -16.724331 -89.946174 28.485477 -11.840506 1.717435 1.555764 -3.337482 14.001579 -16.562961 -2.408794 -1.057758 -2.594449 0.259724 2.107558 3.806333 0.611900 -0.000000 -37.322400 8.923943 -1.465666 1.820368 4.089472 -5.184372 -11.424725 2.346863 1.585713 0.022846 -0.232869 -7.033696 -2.031761 -2.351700 0.000000 -42.938900
3.486607 17.204691 0.884047 -14.409987 -89.743806 26.165918 -11.785468 1.752258 1.627865 -3.307469 13.751001 -16.653595 -2.401764 -1.049240 -2.514751 0.260513 2.092393 3.804144 0.609500 -0.000000 -37.294500 8.971946 -1.447752 1.801231 4.126524 -5.326866 -11.420868 2.341138 1.596764 0.027528 -0.235287 -7.130405 -2.036589 -2.377500 0.000000 -42.948100
3.491301 17.205385 0.883269 -12.659832 -89.515843 24.403629 -11.733086 1.776566 1.693860 -3.282013 13.526954 -16.751297 -2.398391 -1.045541 -2.416881 0.256947 2.054963 3.801152 0.603700 -0.000000 -37.266300 9.018059 -1.445081 1.791807 4.163663 -5.472522 -11.416325 2.336118 1.604286 0.017208 -0.240937 -7.221899 -2.037245 -2.399700 -0.000000 -42.952000
3.496288 17.206130 0.882067 -11.196059 -89.277207 22.918248 -11.681718 1.795690 1.757749 -3.256695 13.295024 -16.822582 -2.393901 -1.046142 -2.337460 0.253988 2.037750 3.810865 0.603000 -0.000000 -37.236600 9.064863 -1.451014 1.784477 4.194027 -5.626588 -11.402874 2.331228 1.608466 -0.002955 -0.247945 -7.299266 -2.032647 -2.416699 0.000000 -42.954100
3.501648 17.206843 0.880477 -9.965298 -89.029852 21.657013 -11.632501 1.809690 1.816806 -3.235886 13.081713 -16.887514 -2.391442 -1.049596 -2.256758 0.248926 2.012298 3.824708 0.601300 -0.000000 -37.207100 9.110700 -1.465119 1.782065 4.220287 -5.781411 -11.385248 2.326345 1.610244 -0.029948 -0.256347 -7.369638 -2.026491 -2.430599 -0.000000 -42.953399
3.507527 17.207522 0.878493 -8.880862 -88.778605 20.532588 -11.584942 1.819872 1.871122 -3.218946 12.880641 -16.937807 -2.390002 -1.055446 -2.184098 0.242847 1.986991 3.845756 0.600400 -0.000001 -37.177700 9.156233 -1.484884 1.782206 4.240375 -5.935477 -11.361400 2.320949 1.609556 -0.060243 -0.265647 -7.433430 -2.019769 -2.441700 0.000000 -42.950700
3.513925 17.208119 0.876137 -7.894032 -88.525833 19.497374 -11.538920 1.826675 1.919889 -3.206824 12.694252 -16.973385 -2.389784 -1.063236 -2.120817 0.235718 1.960257 3.874329 0.599700 0.000000 -37.148000 9.201595 -1.508917 1.784299 4.253193 -6.085704 -11.331274 2.314614 1.606529 -0.091699 -0.275623 -7.493085 -2.014381 -2.450900 -0.000000 -42.946000
3.521032 17.208666 0.873460 -6.973766 -88.274903 18.519500 -11.494543 1.830365 1.963293 -3.197407 12.512130 -16.984343 -2.389145 -1.072856 -2.078757 0.229049 1.945266 3.914447 0.601900 0.000000 -37.118200 9.246653 -1.535241 1.785844 4.257619 -6.229810 -11.293160 2.306928 1.600875 -0.121828 -0.286106 -7.549939 -2.010937 -2.458700 0.000000 -42.939000
3.528759 17.209193 0.870544 -6.120224 -88.027598 17.602796 -11.452656 1.830692 2.000133 -3.191349 12.340909 -16.974974 -2.388698 -1.083900 -2.055315 0.222315 1.935992 3.964572 0.605801 0.000000 -37.088000 9.290409 -1.563441 1.787265 4.254435 -6.362881 -11.248255 2.297768 1.592860 -0.150077 -0.297194 -7.607608 -2.009396 -2.466300 -0.000000 -42.927600
3.537227 17.209618 0.867374 -5.285816 -87.786455 16.698766 -11.412331 1.827615 2.029551 -3.190381 12.178147 -16.941629 -2.388259 -1.096292 -2.055533 0.216032 1.936974 4.026207 0.612200 0.000000 -37.057900 9.333843 -1.591845 1.787041 4.241037 -6.484711 -11.196152 2.286815 1.582406 -0.176468 -0.308800 -7.664617 -2.010946 -2.472901 -0.000000 -42.913300
3.546361 17.210102 0.864110 -4.522736 -87.553746 15.863993 -11.375759 1.820363 2.050183 -3.193279 12.034272 -16.893878 -2.388413 -1.109367 -2.072763 0.209435 1.939331 4.097204 0.619300 0.000000 -37.027300 9.374288 -1.620704 1.786371 4.222146 -6.588083 -11.139818 2.274472 1.570046 -0.201379 -0.321197 -7.725979 -2.013142 -2.480400 0.000000 -42.890100
